<svg    xmlns="http://www.w3.org/2000/svg"
        width="23" height="23"
        viewBox="0 0 23 23">
  <path fill-rule="evenodd"
        clip-rule="evenodd"
        d="M4.87871 0.351007C9.10568 -0.117002 13.3714 -0.117002 17.5984 0.351007C19.9387 0.613325 21.8269 2.45638 22.1015 4.80494C22.6024 9.09218 22.6024 13.4232 22.1015 17.7104C21.8269 20.059 19.9387 21.902 17.5984 22.1643C13.3714 22.6324 9.10568 22.6324 4.87871 22.1643C2.53834 21.902 0.650204 20.059 0.375591 17.7104C-0.125197 13.4236 -0.125197 9.0931 0.375591 4.8063C0.514493 3.66532 1.03464 2.60468 1.85172 1.79627C2.6688 0.98787 3.73494 0.479083 4.87734 0.352373M11.2385 4.43605C11.5103 4.43605 11.7709 4.54401 11.9631 4.73618C12.1553 4.92834 12.2632 5.18897 12.2632 5.46073V10.233H17.0355C17.3072 10.233 17.5679 10.341 17.76 10.5331C17.9522 10.7253 18.0602 10.9859 18.0602 11.2577C18.0602 11.5294 17.9522 11.7901 17.76 11.9822C17.5679 12.1744 17.3072 12.2824 17.0355 12.2824H12.2632V17.0546C12.2632 17.3264 12.1553 17.587 11.9631 17.7792C11.7709 17.9713 11.5103 18.0793 11.2385 18.0793C10.9668 18.0793 10.7061 17.9713 10.514 17.7792C10.3218 17.587 10.2139 17.3264 10.2139 17.0546V12.2824H5.4416C5.16984 12.2824 4.9092 12.1744 4.71704 11.9822C4.52488 11.7901 4.41692 11.5294 4.41692 11.2577C4.41692 10.9859 4.52488 10.7253 4.71704 10.5331C4.9092 10.341 5.16984 10.233 5.4416 10.233H10.2139V5.46073C10.2139 5.18897 10.3218 4.92834 10.514 4.73618C10.7061 4.54401 10.9668 4.43605 11.2385 4.43605Z"
        fill="#1D1E20"/>
</svg>