<svg    xmlns="http://www.w3.org/2000/svg"
        width="19" height="16"
        viewBox="0 0 19 16"
        fill="none">
  <path fill-rule="evenodd"
        clip-rule="evenodd"
        d="M16.0975 0.13196C16.3019 0.00903834 16.5459 -0.0299477 16.7783 0.0231843C17.0108 0.0763164 17.2137 0.217435 17.3443 0.416923L18.2573 1.80946C18.3763 1.99138 18.4273 2.20949 18.4011 2.4253C18.375 2.64111 18.2734 2.84075 18.1144 2.98897L18.1116 2.99266L18.0987 3.00464L18.0461 3.05352L17.8386 3.2518C16.6905 4.36551 15.5772 5.51452 14.5002 6.69717C12.4741 8.92523 10.0681 11.8413 8.4487 14.6706C7.99682 15.46 6.89293 15.6297 6.23816 14.9482L0.257631 8.73433C0.171925 8.64525 0.105005 8.53985 0.0608462 8.42438C0.0166879 8.30892 -0.00380645 8.18576 0.000581094 8.06222C0.00496864 7.93868 0.0341486 7.81729 0.0863866 7.70525C0.138625 7.59321 0.212854 7.49282 0.304663 7.41004L2.11219 5.77957C2.27104 5.63636 2.47472 5.55281 2.68837 5.54322C2.90202 5.53364 3.11237 5.5986 3.2834 5.72701L6.33499 8.01501C11.1019 3.31451 13.8049 1.51066 16.0975 0.13196Z"
        fill="#1D1E20"/>
</svg>