<svg    xmlns="http://www.w3.org/2000/svg"
        width="30" height="34"
        viewBox="0 0 30 34">
  <path d="M28.3333 5C28.7754 5 29.1993 5.17559 29.5118 5.48816C29.8244 5.80072 30 6.22464 30 6.66667C30 7.10869 29.8244 7.53262 29.5118 7.84518C29.1993 8.15774 28.7754 8.33333 28.3333 8.33333H26.6667L26.6617 8.45167L25.1067 30.2367C25.0468 31.0776 24.6705 31.8647 24.0535 32.4393C23.4366 33.0139 22.6248 33.3334 21.7817 33.3333H8.21667C7.37357 33.3334 6.56178 33.0139 5.94481 32.4393C5.32784 31.8647 4.95153 31.0776 4.89167 30.2367L3.33667 8.45333L3.33333 8.33333H1.66667C1.22464 8.33333 0.800716 8.15774 0.488155 7.84518C0.175595 7.53262 0 7.10869 0 6.66667C0 6.22464 0.175595 5.80072 0.488155 5.48816C0.800716 5.17559 1.22464 5 1.66667 5H28.3333ZM18.3333 0C18.7754 0 19.1993 0.175595 19.5118 0.488155C19.8244 0.800716 20 1.22464 20 1.66667C20 2.10869 19.8244 2.53262 19.5118 2.84518C19.1993 3.15774 18.7754 3.33333 18.3333 3.33333H11.6667C11.2246 3.33333 10.8007 3.15774 10.4882 2.84518C10.1756 2.53262 10 2.10869 10 1.66667C10 1.22464 10.1756 0.800716 10.4882 0.488155C10.8007 0.175595 11.2246 0 11.6667 0H18.3333Z"
  fill="#00BDA1"/>
</svg>