<svg    xmlns="http://www.w3.org/2000/svg"
        width="30" height="30"
        viewBox="0 0 30 30">
  <path d="M0 23.7541V30.0041H6.25L24.6833 11.5707L18.4333 5.32074L0 23.7541ZM29.5167 6.73741C29.6712 6.58322 29.7937 6.40007 29.8774 6.19845C29.961 5.99682 30.0041 5.78069 30.0041 5.56241C30.0041 5.34413 29.961 5.12799 29.8774 4.92637C29.7937 4.72474 29.6712 4.5416 29.5167 4.38741L25.6167 0.487407C25.4625 0.332901 25.2793 0.210321 25.0777 0.126686C24.8761 0.0430499 24.6599 0 24.4417 0C24.2234 0 24.0072 0.0430499 23.8056 0.126686C23.604 0.210321 23.4209 0.332901 23.2667 0.487407L20.2167 3.53741L26.4667 9.78741L29.5167 6.73741Z"
        fill="#A6F3A6"/>
</svg>